<svg width="1180" height="170" viewBox="0 0 1180 170" fill="none" xmlns="http://www.w3.org/2000/svg">
<path d="M86.9766 23.4297C135.012 23.4297 173.953 50.9957 173.953 85C173.953 119.004 135.012 146.57 86.9766 146.57C38.9407 146.57 4.95163e-05 119.004 0 85C0 50.9957 38.9407 23.4298 86.9766 23.4297ZM87.0967 26.6592C51.6061 26.6593 22.835 47.0503 22.835 72.2041C22.8352 97.3578 51.6062 117.749 87.0967 117.749C122.587 117.749 151.358 97.3579 151.358 72.2041C151.358 47.0502 122.587 26.6592 87.0967 26.6592ZM87.165 30.2842C117.421 30.2842 141.948 47.6473 141.948 69.0654C141.948 90.4832 117.421 107.846 87.165 107.846C56.9094 107.846 32.3814 90.4831 32.3809 69.0654C32.3809 47.6474 56.9091 30.2843 87.165 30.2842ZM86.5332 32.0869C64.1792 32.0872 46.0576 44.9311 46.0576 60.7744C46.0583 76.6173 64.1797 89.4606 86.5332 89.4609C108.887 89.4609 127.009 76.6175 127.01 60.7744C127.01 44.9309 108.888 32.0869 86.5332 32.0869ZM86.9609 37.0332C104.504 37.0332 118.725 47.101 118.725 59.5195C118.724 71.9377 104.503 82.0048 86.9609 82.0049C69.4185 82.0048 55.1969 71.9376 55.1963 59.5195C55.1963 47.1011 69.4181 37.0333 86.9609 37.0332ZM86.7881 38.9678C73.8269 38.9679 63.3193 46.4153 63.3193 55.6016C63.3197 64.7876 73.8271 72.2343 86.7881 72.2344C99.7492 72.2344 110.256 64.7876 110.257 55.6016C110.257 46.4153 99.7494 38.9678 86.7881 38.9678Z" fill="#FD4853"/>
<path d="M257.647 80.9429H355.114V33.1809H375.837V147H355.114V99.4H257.647V147H236.923V33.1809H257.647V80.9429ZM402.306 33.1809H522.116V51.3143H423.03V81.1048H518.878V99.0762H423.03V129.029H522.116V147H402.306V33.1809ZM700.373 147H676.897L662.811 122.39H580.078L565.992 147H542.354L608.249 33.1809H634.478L700.373 147ZM621.363 50.3429L590.278 104.581H652.449L621.363 50.3429ZM677.538 51.6381V33.1809H816.776V51.6381H757.519V147H736.957V51.6381H677.538Z" fill="#1a1a1a"/>
<path d="M857 33.1809H977V51.3143H877.723V129.029H977V147H857V33.1809ZM1000 33.1809H1020.723V129.029H1120V147H1000V33.1809ZM1143 33.1809H1163.723V147H1143V33.1809Z" fill="#1a1a1a"/>
</svg>
